#!OML:ASF F:\VICON\USERDATA\INSTALL\rory3\rory3.ASF
:FULLY-SPECIFIED
:DEGREES
107
root -3.52727 15.1793 12.3472 241.715 0.930486 -186.516
lowerback 29.8333 1.79425 13.5103
upperback 3.6263 5.67334 12.1863
thorax -11.4478 1.25379 4.09626
lowerneck -25.2159 -10.1481 -12.6644
upperneck 1.6054 -10.3798 12.1054
head 5.71392 -4.10055 4.64982
rclavicle 6.04305e-014 -6.16605e-014
rhumerus 50.2008 -2.68979 -43.1641
rradius 29.5468
rwrist 18.7043
rhand -30.5713 -70.0498
rfingers 7.12502
rthumb -3.86917 99.9944
lclavicle 6.04305e-014 -6.16605e-014
lhumerus 52.4336 25.478 -4.94081
lradius 30.2543
lwrist -8.48473
lhand -45.8329 -56.5229
lfingers 7.12502
lthumb -18.5849 -27.3907
rfemur -100.75 -0.660836 19.2345
rtibia 65.0375
rfoot -22.3153 -17.9245
rtoes 3.18726
lfemur -53.5484 -9.74128 -13.7829
ltibia 37.8156
lfoot -33.8367 32.0293
ltoes -5.60882
108
root -3.47893 15.1611 12.1752 242.439 0.919133 -187.2
lowerback 30.8771 1.60695 14.2494
upperback 3.79642 5.76175 12.4205
thorax -11.6306 1.21125 3.95457
lowerneck -25.9545 -10.342 -12.813
upperneck 0.729905 -10.3866 12.5216
head 5.57504 -4.0091 4.80825
rclavicle -6.36111e-014 -1.26328e-013
rhumerus 51.5591 -3.96275 -42.8508
rradius 29.9745
rwrist 18.7138
rhand -31.025 -69.9279
rfingers 7.12502
rthumb -4.30729 99.8641
lclavicle -6.36111e-014 -1.26328e-013
lhumerus 55.0517 26.4117 -2.53948
lradius 30.1496
lwrist -9.85912
lhand -46.5188 -56.2632
lfingers 7.12502
lthumb -19.2446 -27.1954
rfemur -101.108 -1.2076 18.9303
rtibia 65.5335
rfoot -23.5993 -17.3442
rtoes 6.11401
lfemur -53.1413 -10.0624 -13.8195
ltibia 37.2946
lfoot -31.2644 31.0627
ltoes -3.14061
109
root -3.43089 15.142 11.9841 242.617 1.24825 -188.04
lowerback 32.4445 1.3193 14.8537
upperback 4.07103 5.77006 12.5042
thorax -11.8991 1.13099 3.7495
lowerneck -26.4719 -10.2998 -12.2187
upperneck -0.602124 -10.1755 12.1384
head 5.1361 -3.85901 4.63335
rclavicle 2.22639e-013 1.65786e-013
rhumerus 52.9434 -5.31657 -42.7385
rradius 30.3209
rwrist 18.8984
rhand -31.2492 -70.2934
rfingers 7.12502
rthumb -4.52378 100.225
lclavicle 2.22639e-013 1.65786e-013
lhumerus 57.392 27.2089 -1.03303
lradius 30.1561
lwrist -10.1488
lhand -46.2149 -54.1085
lfingers 7.12502
lthumb -18.9524 -25.0119
rfemur -100.832 -1.70057 18.1665
rtibia 66.0705
rfoot -24.6703 -17.1903
rtoes 7.26724
lfemur -51.8441 -10.5154 -14.4419
ltibia 36.7567
lfoot -28.4903 30.2183
ltoes -3.56837
110
root -3.3802 15.1026 11.8001 243.312 1.79687 -189.059
lowerback 33.3896 1.08913 15.1575
upperback 4.21017 5.728 12.4714
thorax -12.0796 1.07984 3.58393
lowerneck -28.2097 -10.243 -11.1175
upperneck -0.086355 -10.1093 11.0498
head 5.38969 -3.81739 4.08633
rclavicle 1.27222e-014 1.10127e-013
rhumerus 54.1492 -6.67839 -42.8967
rradius 30.7746
rwrist 18.9745
rhand -30.3278 -71.9351
rfingers 7.12502
rthumb -3.634 101.884
lclavicle 1.27222e-014 1.10127e-013
lhumerus 61.2469 27.7355 3.14935
lradius 29.8359
lwrist -12.6562
lhand -45.7273 -50.4487
lfingers 7.12502
lthumb -18.4833 -21.3068
rfemur -101.151 -2.23399 17.096
rtibia 66.5932
rfoot -25.4252 -17.43
rtoes 6.53224
lfemur -50.916 -11.0155 -15.3117
ltibia 36.1784
lfoot -26.0861 29.1251
ltoes -4.68955
111
root -3.32303 15.0257 11.6566 245.297 2.50967 -190.235
lowerback 32.8435 1.1118 15.0246
upperback 4.20298 5.66967 12.4449
thorax -11.8846 1.11381 3.63027
lowerneck -30.9999 -10.1838 -10.0555
upperneck 1.49693 -9.96904 9.60589
head 6.07674 -3.75013 3.42482
rclavicle -4.45278e-014 -9.14409e-015
rhumerus 55.5188 -8.15089 -43.4336
rradius 31.2483
rwrist 18.9701
rhand -29.7548 -72.8519
rfingers 7.12502
rthumb -3.08064 102.809
lclavicle -4.45278e-014 -9.14409e-015
lhumerus 64.1609 28.0751 5.45386
lradius 29.6418
lwrist -13.6517
lhand -46.4792 -53.3238
lfingers 7.12502
lthumb -19.2065 -24.2522
rfemur -103.038 -2.89055 15.8674
rtibia 67.0609
rfoot -25.6229 -18.0018
rtoes 4.3346
lfemur -51.3584 -11.4839 -16.1346
ltibia 35.6457
lfoot -23.859 28.0109
ltoes -5.26312
112
root -3.27171 14.9637 11.4841 246.353 3.09122 -191.129
lowerback 33.2344 0.9149 15.4804
upperback 4.26984 5.63391 12.4584
thorax -11.9026 1.07624 3.43893
lowerneck -31.2076 -10.2557 -10.3302
upperneck 0.41556 -9.82984 10.0776
head 5.77712 -3.59748 3.66078
rclavicle 8.5875e-014 1.10524e-013
rhumerus 57.0101 -9.41407 -44.0546
rradius 31.7215
rwrist 18.8755
rhand -30.4169 -72.7789
rfingers 7.12502
rthumb -3.72005 102.726
lclavicle 8.5875e-014 1.10524e-013
lhumerus 67.0558 28.575 7.9037
lradius 29.0018
lwrist -15.3317
lhand -46.7076 -65.7139
lfingers 7.12502
lthumb -19.4262 -36.6643
rfemur -103.725 -3.33325 14.9645
rtibia 67.4859
rfoot -25.7388 -18.9106
rtoes 1.3933
lfemur -50.3592 -11.9363 -16.9385
ltibia 35.0683
lfoot -20.3575 25.6676
ltoes 1.42513
113
root -3.22101 14.9076 11.3093 247.35 3.61731 -191.986
lowerback 33.5745 0.668973 16.1175
upperback 4.34583 5.57474 12.5139
thorax -11.8652 1.01879 3.21954
lowerneck -31.0409 -10.4846 -10.9305
upperneck -0.839322 -9.8898 11.0875
head 5.47427 -3.51676 4.08378
rclavicle -6.67916e-014 -2.06736e-014
rhumerus 58.6642 -10.5083 -44.6287
rradius 32.0973
rwrist 18.6954
rhand -30.7229 -73.9166
rfingers 7.12502
rthumb -4.01552 103.859
lclavicle -6.67916e-014 -2.06736e-014
lhumerus 69.6865 28.9518 10.0628
lradius 28.4514
lwrist -16.9142
lhand -46.4242 -72.9093
lfingers 7.12502
lthumb -19.1537 -43.8325
rfemur -104.289 -3.76336 13.9943
rtibia 67.885
rfoot -26.0546 -19.6888
rtoes 0.363115
lfemur -48.9834 -12.4392 -17.722
ltibia 34.3558
lfoot -21.0515 24.3345
ltoes -9.51043
